<svg xmlns="http://www.w3.org/2000/svg" viewBox="0 0 512 512">
  <defs>
    <linearGradient id="bg" x1="0%" y1="0%" x2="100%" y2="100%">
      <stop offset="0%" stop-color="#0b5cff"/>
      <stop offset="100%" stop-color="#4f46e5"/>
    </linearGradient>
    <linearGradient id="glass" x1="0%" y1="0%" x2="100%" y2="100%">
      <stop offset="0%" stop-color="rgba(255,255,255,0.9)"/>
      <stop offset="100%" stop-color="rgba(255,255,255,0.7)"/>
    </linearGradient>
    <filter id="shadow" x="-20%" y="-20%" width="140%" height="140%">
      <feDropShadow dx="0" dy="8" stdDeviation="16" flood-color="rgba(0,0,0,0.2)"/>
    </filter>
  </defs>
  
  <!-- Background with rounded corners -->
  <rect width="512" height="512" rx="120" fill="url(#bg)"/>
  
  <!-- Glass effect overlay -->
  <rect x="32" y="32" width="448" height="448" rx="100" fill="url(#glass)" opacity="0.1"/>
  
  <!-- Main waste bin -->
  <g transform="translate(96, 120)" filter="url(#shadow)">
    <!-- Bin body -->
    <rect x="0" y="40" width="320" height="280" rx="24" fill="rgba(255,255,255,0.95)"/>
    
    <!-- Bin lid -->
    <rect x="20" y="20" width="280" height="40" rx="20" fill="rgba(255,255,255,0.9)"/>
    
    <!-- Lid handle -->
    <rect x="140" y="30" width="40" height="20" rx="10" fill="rgba(255,255,255,0.8)"/>
    
    <!-- Bin opening -->
    <rect x="40" y="60" width="240" height="20" rx="10" fill="rgba(255,255,255,0.7)"/>
    
    <!-- Recycling symbols -->
    <g fill="rgba(11, 92, 255, 0.8)">
      <!-- Organic waste symbol -->
      <circle cx="80" cy="200" r="16"/>
      <path d="M80 184c4 8 2 14-2 16-4 2-8 0-12-8-4-8-2-14 2-16 4-2 8 0 12 8z" fill="rgba(255,255,255,0.9)"/>
      
      <!-- Glass symbol -->
      <circle cx="160" cy="200" r="16"/>
      <rect x="152" y="192" width="16" height="16" rx="2" fill="rgba(255,255,255,0.9)"/>
      
      <!-- Paper symbol -->
      <circle cx="240" cy="200" r="16"/>
      <path d="M232 192h16v8h-8l-8-8z" fill="rgba(255,255,255,0.9)"/>
    </g>
    
    <!-- Wheels -->
    <circle cx="80" cy="320" r="20" fill="rgba(255,255,255,0.8)"/>
    <circle cx="240" cy="320" r="20" fill="rgba(255,255,255,0.8)"/>
    <circle cx="80" cy="320" r="12" fill="rgba(11, 92, 255, 0.3)"/>
    <circle cx="240" cy="320" r="12" fill="rgba(11, 92, 255, 0.3)"/>
  </g>
  
  <!-- Floating waste items -->
  <g opacity="0.8">
    <!-- Paper -->
    <rect x="380" y="80" width="24" height="32" rx="4" fill="rgba(255,255,255,0.9)" transform="rotate(15 392 96)"/>
    
    <!-- Bottle -->
    <rect x="420" y="140" width="16" height="28" rx="8" fill="rgba(255,255,255,0.8)" transform="rotate(-10 428 154)"/>
    
    <!-- Can -->
    <rect x="360" y="200" width="20" height="20" rx="10" fill="rgba(255,255,255,0.7)" transform="rotate(20 370 210)"/>
  </g>
</svg>


